HIERARCHY
ROOT hips
{
	OFFSET -0.003675 0.299928 -0.021708
	CHANNELS 6 Xposition Yposition Zposition Xrotation Yrotation Zrotation
	JOINT LowerBack
	{
		OFFSET 0.000919 0.177588 0.009275
		CHANNELS 3 Xrotation Yrotation Zrotation
		JOINT spine
		{
			OFFSET 0.000919 0.177588 0.009275
			CHANNELS 3 Xrotation Yrotation Zrotation
			JOINT chest
			{
				OFFSET 0.000456 0.100015 0.004638
				CHANNELS 3 Xrotation Yrotation Zrotation
				JOINT neck
				{
					OFFSET 0.000456 0.100015 0.004638
					CHANNELS 3 Xrotation Yrotation Zrotation
					JOINT head
					{
						OFFSET 0.000924 0.155147 0.009274
						CHANNELS 6 Xposition Yposition Zposition Xrotation Yrotation Zrotation
						End Site
						{
							OFFSET 0.000000 0.153400 0.000000
						}
					}
				}
				JOINT shoulder.L
				{
					OFFSET 0.019937 0.078966 0.057518
					CHANNELS 6 Xposition Yposition Zposition Yrotation Xrotation Zrotation
					JOINT upper_arm.L
					{
						OFFSET 0.177024 -0.020465 -0.095062
						CHANNELS 6 Xposition Yposition Zposition Xrotation Yrotation Zrotation
						JOINT forearm.L
						{
							OFFSET 0.247100 -0.135500 -0.061800
							CHANNELS 3 Xrotation Yrotation Zrotation
							JOINT hand.L
							{
								OFFSET 0.217000 -0.143000 0.039300
								CHANNELS 3 Xrotation Yrotation Zrotation
								JOINT palm.01.L
								{
									OFFSET 0.021770 -0.038291 0.012954
									CHANNELS 6 Xposition Yposition Zposition Yrotation Xrotation Zrotation
									JOINT f_index.01.L
									{
										OFFSET 0.053215 -0.044137 0.008236
										CHANNELS 3 Xrotation Yrotation Zrotation
										JOINT f_index.02.L
										{
											OFFSET 0.036108 -0.024723 -0.010656
											CHANNELS 3 Xrotation Yrotation Zrotation
											JOINT f_index.03.L
											{
												OFFSET 0.021342 -0.014948 -0.010846
												CHANNELS 3 Xrotation Yrotation Zrotation
												End Site
												{
													OFFSET 0.015600 -0.009860 -0.013421
												}
											}
										}
									}
									JOINT thumb.01.L
									{
										OFFSET -0.009090 -0.002348 -0.024223
										CHANNELS 6 Xposition Yposition Zposition Xrotation Yrotation Zrotation
										JOINT thumb.02.L
										{
											OFFSET 0.019713 -0.035076 -0.011120
											CHANNELS 3 Xrotation Yrotation Zrotation
											JOINT thumb.03.L
											{
												OFFSET 0.024877 -0.021748 -0.005176
												CHANNELS 3 Xrotation Yrotation Zrotation
												End Site
												{
													OFFSET 0.016125 -0.013029 -0.001569
												}
											}
										}
									}
								}
								JOINT palm.02.L
								{
									OFFSET 0.032823 -0.025104 0.012281
									CHANNELS 6 Xposition Yposition Zposition Yrotation Xrotation Zrotation
									JOINT f_middle.01.L
									{
										OFFSET 0.055723 -0.038469 0.008037
										CHANNELS 3 Xrotation Yrotation Zrotation
										JOINT f_middle.02.L
										{
											OFFSET 0.038167 -0.027473 -0.015582
											CHANNELS 3 Xrotation Yrotation Zrotation
											JOINT f_middle.03.L
											{
												OFFSET 0.021707 -0.016587 -0.017037
												CHANNELS 3 Xrotation Yrotation Zrotation
												End Site
												{
													OFFSET 0.014112 -0.010584 -0.014294
												}
											}
										}
									}
								}
								JOINT palm.03.L
								{
									OFFSET 0.039230 -0.011402 0.008390
									CHANNELS 6 Xposition Yposition Zposition Yrotation Xrotation Zrotation
									JOINT f_ring.01.L
									{
										OFFSET 0.061796 -0.031470 0.007910
										CHANNELS 3 Xrotation Yrotation Zrotation
										JOINT f_ring.02.L
										{
											OFFSET 0.033092 -0.023401 -0.019127
											CHANNELS 3 Xrotation Yrotation Zrotation
											JOINT f_ring.03.L
											{
												OFFSET 0.021392 -0.015362 -0.017824
												CHANNELS 3 Xrotation Yrotation Zrotation
												End Site
												{
													OFFSET 0.008670 -0.007297 -0.014686
												}
											}
										}
									}
								}
								JOINT palm.04.L
								{
									OFFSET 0.043417 0.002450 0.002889
									CHANNELS 6 Xposition Yposition Zposition Yrotation Xrotation Zrotation
									JOINT f_pinky.01.L
									{
										OFFSET 0.069986 -0.026156 0.003627
										CHANNELS 3 Xrotation Yrotation Zrotation
										JOINT f_pinky.02.L
										{
											OFFSET 0.018520 -0.012813 -0.016429
											CHANNELS 3 Xrotation Yrotation Zrotation
											JOINT f_pinky.03.L
											{
												OFFSET 0.013822 -0.009796 -0.014947
												CHANNELS 3 Xrotation Yrotation Zrotation
												End Site
												{
													OFFSET 0.007238 -0.006103 -0.011657
												}
											}
										}
									}
								}
							}
						}
					}
				}
				JOINT shoulder.R
				{
					OFFSET -0.016662 0.078957 0.057696
					CHANNELS 6 Xposition Yposition Zposition Yrotation Xrotation Zrotation
					JOINT upper_arm.R
					{
						OFFSET -0.176972 -0.020537 -0.095144
						CHANNELS 6 Xposition Yposition Zposition Xrotation Yrotation Zrotation
						JOINT forearm.R
						{
							OFFSET -0.247100 -0.135500 -0.061800
							CHANNELS 3 Xrotation Yrotation Zrotation
							JOINT hand.R
							{
								OFFSET -0.217000 -0.143000 0.039300
								CHANNELS 3 Xrotation Yrotation Zrotation
								JOINT palm.01.R
								{
									OFFSET -0.021773 -0.038278 0.012988
									CHANNELS 6 Xposition Yposition Zposition Yrotation Xrotation Zrotation
									JOINT f_index.01.R
									{
										OFFSET -0.053212 -0.044139 0.008249
										CHANNELS 3 Xrotation Yrotation Zrotation
										JOINT f_index.02.R
										{
											OFFSET -0.036049 -0.024835 -0.010634
											CHANNELS 3 Xrotation Yrotation Zrotation
											JOINT f_index.03.R
											{
												OFFSET -0.021371 -0.014881 -0.010866
												CHANNELS 3 Xrotation Yrotation Zrotation
												End Site
												{
													OFFSET -0.015584 -0.009883 -0.013422
												}
											}
										}
									}
									JOINT thumb.01.R
									{
										OFFSET 0.009113 -0.002381 -0.024211
										CHANNELS 6 Xposition Yposition Zposition Xrotation Yrotation Zrotation
										JOINT thumb.02.R
										{
											OFFSET -0.019694 -0.035097 -0.011088
											CHANNELS 3 Xrotation Yrotation Zrotation
											JOINT thumb.03.R
											{
												OFFSET -0.024867 -0.021762 -0.005168
												CHANNELS 3 Xrotation Yrotation Zrotation
												End Site
												{
													OFFSET -0.016120 -0.013036 -0.001565
												}
											}
										}
									}
								}
								JOINT palm.02.R
								{
									OFFSET -0.032828 -0.025095 0.012286
									CHANNELS 6 Xposition Yposition Zposition Yrotation Xrotation Zrotation
									JOINT f_middle.01.R
									{
										OFFSET -0.055721 -0.038472 0.008040
										CHANNELS 3 Xrotation Yrotation Zrotation
										JOINT f_middle.02.R
										{
											OFFSET -0.038101 -0.027593 -0.015557
											CHANNELS 3 Xrotation Yrotation Zrotation
											JOINT f_middle.03.R
											{
												OFFSET -0.021730 -0.016530 -0.017054
												CHANNELS 3 Xrotation Yrotation Zrotation
												End Site
												{
													OFFSET -0.014096 -0.010608 -0.014293
												}
											}
										}
									}
								}
								JOINT palm.03.R
								{
									OFFSET -0.039192 -0.011488 0.008390
									CHANNELS 6 Xposition Yposition Zposition Yrotation Xrotation Zrotation
									JOINT f_ring.01.R
									{
										OFFSET -0.061839 -0.031387 0.007876
										CHANNELS 3 Xrotation Yrotation Zrotation
										JOINT f_ring.02.R
										{
											OFFSET -0.033068 -0.023437 -0.019125
											CHANNELS 3 Xrotation Yrotation Zrotation
											JOINT f_ring.03.R
											{
												OFFSET -0.021371 -0.015393 -0.017822
												CHANNELS 3 Xrotation Yrotation Zrotation
												End Site
												{
													OFFSET -0.008654 -0.007321 -0.014684
												}
											}
										}
									}
								}
								JOINT palm.04.R
								{
									OFFSET -0.043421 0.002443 0.002845
									CHANNELS 6 Xposition Yposition Zposition Yrotation Xrotation Zrotation
									JOINT f_pinky.01.R
									{
										OFFSET -0.069983 -0.026169 0.003599
										CHANNELS 3 Xrotation Yrotation Zrotation
										JOINT f_pinky.02.R
										{
											OFFSET -0.018501 -0.012842 -0.016428
											CHANNELS 3 Xrotation Yrotation Zrotation
											JOINT f_pinky.03.R
											{
												OFFSET -0.013806 -0.009821 -0.014946
												CHANNELS 3 Xrotation Yrotation Zrotation
												End Site
												{
													OFFSET -0.007226 -0.006121 -0.011655
												}
											}
										}
									}
								}
							}
						}
					}
				}
			}
		}
	}
	JOINT pelvis.L
	{
		OFFSET 0.000000 0.000000 0.000000
		CHANNELS 6 Xposition Yposition Zposition Xrotation Yrotation Zrotation
		JOINT thigh.L
		{
			OFFSET 0.101675 0.001054 -0.000000
			CHANNELS 3 Xrotation Yrotation Zrotation
			JOINT shin.L
			{
				OFFSET 0.000000 -0.534800 0.041000
				CHANNELS 3 Xrotation Yrotation Zrotation
				JOINT foot.L
				{
					OFFSET 0.000000 -0.452000 -0.044800
					CHANNELS 3 Xrotation Yrotation Zrotation
					JOINT toe.L
					{
						OFFSET -0.000000 -0.068500 0.109600
						CHANNELS 3 Xrotation Yrotation Zrotation
						End Site
						{
							OFFSET -0.000000 0.000000 0.067200
						}
					}
				}
				JOINT heel.L
				{
					OFFSET 0.000000 -0.452000 -0.044800
					CHANNELS 3 Xrotation Yrotation Zrotation
					JOINT heel.02.L
					{
						OFFSET -0.038000 -0.085200 0.016200
						CHANNELS 6 Xposition Yposition Zposition Xrotation Yrotation Zrotation
						End Site
						{
							OFFSET 0.080000 -0.000000 0.000000
						}
					}
				}
			}
		}
	}
	JOINT pelvis.R
	{
		OFFSET 0.000000 0.000000 0.000000
		CHANNELS 6 Xposition Yposition Zposition Xrotation Yrotation Zrotation
		JOINT thigh.R
		{
			OFFSET -0.094325 0.001054 0.000000
			CHANNELS 3 Xrotation Yrotation Zrotation
			JOINT shin.R
			{
				OFFSET 0.000000 -0.534800 0.041000
				CHANNELS 3 Xrotation Yrotation Zrotation
				JOINT foot.R
				{
					OFFSET 0.000000 -0.452000 -0.044800
					CHANNELS 3 Xrotation Yrotation Zrotation
					JOINT toe.R
					{
						OFFSET -0.000000 -0.068500 0.109600
						CHANNELS 3 Xrotation Yrotation Zrotation
						End Site
						{
							OFFSET -0.000000 0.000000 0.067200
						}
					}
				}
				JOINT heel.R
				{
					OFFSET 0.000000 -0.452000 -0.044800
					CHANNELS 3 Xrotation Yrotation Zrotation
					JOINT heel.02.R
					{
						OFFSET 0.038000 -0.085200 0.016200
						CHANNELS 6 Xposition Yposition Zposition Xrotation Yrotation Zrotation
						End Site
						{
							OFFSET -0.080000 0.000000 -0.000000
						}
					}
				}
			}
		}
	}
}
MOTION
Frames: 4
Frame Time: 0.041667
-0.005160 0.298939 -0.009719 -182.138237 160.201909 185.141348 -0.000001 -0.000002 -0.000001 -0.000000 -0.000001 -0.000001 -0.000001 -0.000003 -0.000000 -0.000000 -0.000003 -0.000000 0.000924 0.155147 0.009274 11.683871 -0.013005 7.912595 0.019937 0.078966 0.057518 14.856358 8.754428 29.187867 0.177024 -0.020465 -0.095062 -11.526815 10.546785 -63.239984 -55.103637 0.892260 -64.431435 -0.000003 0.000003 0.000001 0.021770 -0.038291 0.012954 0.000005 -0.000004 -0.000004 0.000003 -0.000007 0.000001 0.000002 -0.000004 0.000008 -0.000000 -0.000003 -0.000000 -0.009090 -0.002348 -0.024224 0.000002 -0.000006 0.000003 0.000002 -0.000002 -0.000001 -0.000001 -0.000002 -0.000002 0.032823 -0.025104 0.012281 -0.000001 0.000001 0.000004 -0.000002 -0.000001 -0.000003 -0.000003 -0.000001 0.000005 -0.000004 0.000001 0.000001 0.039230 -0.011402 0.008390 0.000001 0.000001 0.000001 0.000001 0.000001 -0.000004 0.000003 0.000003 0.000001 -0.000002 0.000001 0.000001 0.043417 0.002450 0.002889 0.000002 -0.000001 -0.000007 0.000002 -0.000004 -0.000004 0.000001 0.000004 0.000000 0.000000 -0.000005 -0.000001 -0.016662 0.078957 0.057696 19.083813 11.490379 -49.851406 -0.176972 -0.020537 -0.095144 -99.414633 -44.930046 46.032005 -32.092662 -15.397910 108.202279 -0.000001 -0.000003 0.000001 -0.021773 -0.038278 0.012988 -0.000005 0.000001 -0.000005 -0.000001 0.000004 -0.000001 -0.000001 -0.000000 -0.000001 -0.000002 0.000000 0.000004 0.009114 -0.002381 -0.024211 0.000001 0.000001 0.000001 -0.000001 -0.000003 0.000000 -0.000000 0.000001 -0.000006 -0.032828 -0.025095 0.012286 -0.000001 0.000005 -0.000003 0.000001 0.000001 -0.000003 -0.000000 0.000004 0.000000 -0.000002 -0.000000 -0.000002 -0.039192 -0.011488 0.008390 -0.000002 0.000003 -0.000002 -0.000000 0.000000 -0.000002 -0.000002 -0.000000 -0.000000 -0.000001 -0.000002 0.000004 -0.043421 0.002443 0.002845 -0.000004 0.000003 -0.000003 -0.000002 0.000006 -0.000001 -0.000005 -0.000006 0.000002 0.000001 -0.000003 -0.000000 0.000000 0.000000 -0.000000 -1.001276 0.046837 -1.744981 5.720577 0.102624 1.303433 24.069901 -0.826729 8.373486 -0.000003 -0.000000 -0.000002 -0.000003 -0.000002 0.000001 -0.000002 0.000001 0.000000 -0.038000 -0.085200 0.016200 0.000002 0.000001 -0.000000 0.000000 0.000000 0.000000 -0.978575 0.046382 -0.510829 13.839711 -0.208438 -2.189132 19.082469 -0.276803 2.794431 0.000000 0.000004 -0.000002 0.000002 0.000002 -0.000002 0.000005 0.000003 -0.000002 0.038000 -0.085200 0.016200 -0.000000 0.000000 0.000001 
-0.005152 0.299355 -0.009819 -182.561203 158.235471 185.330572 0.000000 0.000002 0.000000 -0.000000 0.000003 -0.000000 -0.000000 0.000003 -0.000000 0.000001 0.000001 0.000000 0.000924 0.155148 0.009274 11.779365 -0.013050 7.926587 0.019937 0.078966 0.057518 14.514210 8.766105 29.381278 0.177025 -0.020465 -0.095062 -12.338211 10.554489 -62.808992 -56.361584 2.202446 -65.232924 -0.000000 0.000000 0.000003 0.021770 -0.038291 0.012954 0.000004 -0.000000 -0.000004 0.000002 -0.000004 0.000006 -0.000004 -0.000000 0.000005 0.000003 -0.000004 -0.000002 -0.009090 -0.002348 -0.024224 0.000003 0.000000 0.000001 0.000002 0.000000 0.000001 0.000003 0.000000 -0.000004 0.032823 -0.025104 0.012281 0.000002 0.000000 0.000002 0.000001 0.000000 -0.000007 -0.000004 -0.000005 0.000003 0.000002 0.000003 0.000001 0.039230 -0.011402 0.008390 0.000002 0.000001 0.000003 0.000002 -0.000000 -0.000002 -0.000004 0.000005 0.000005 -0.000003 -0.000001 0.000005 0.043417 0.002450 0.002889 0.000001 0.000001 -0.000000 -0.000005 0.000001 0.000001 0.000002 0.000004 -0.000001 -0.000001 -0.000001 -0.000001 -0.016662 0.078956 0.057696 18.337683 11.498034 -49.966693 -0.176972 -0.020537 -0.095144 -98.809608 -43.823033 46.254721 -32.232462 -15.113995 107.425946 0.000001 0.000002 -0.000000 -0.021772 -0.038278 0.012988 0.000001 -0.000000 0.000004 0.000001 0.000003 0.000002 0.000002 -0.000004 0.000000 -0.000000 0.000002 0.000005 0.009113 -0.002381 -0.024212 0.000004 -0.000003 0.000002 -0.000001 -0.000003 0.000000 0.000004 -0.000001 -0.000001 -0.032828 -0.025095 0.012286 0.000001 -0.000002 0.000001 -0.000004 0.000006 -0.000004 -0.000000 -0.000000 -0.000001 -0.000000 0.000003 -0.000004 -0.039192 -0.011488 0.008390 0.000003 -0.000002 0.000005 -0.000002 0.000004 -0.000005 0.000001 -0.000003 -0.000002 -0.000000 0.000003 -0.000001 -0.043421 0.002443 0.002845 0.000003 -0.000001 0.000005 -0.000002 0.000000 -0.000004 0.000000 0.000001 -0.000002 0.000001 0.000000 -0.000001 0.000000 0.000000 -0.000000 -0.997346 0.034152 -1.564107 5.435636 0.120586 1.550834 24.101926 -0.814460 8.248342 0.000002 -0.000001 0.000000 0.000004 0.000002 -0.000002 0.000000 -0.000001 0.000000 -0.038000 -0.085200 0.016200 0.000002 -0.000002 -0.000001 0.000000 -0.000000 0.000000 -0.975055 0.033773 -0.329926 13.723587 -0.197752 -2.058984 19.056335 -0.268524 2.710784 0.000005 0.000001 -0.000002 0.000001 0.000001 -0.000001 0.000007 0.000000 0.000001 0.038000 -0.085200 0.016200 0.000003 0.000004 -0.000001 
-0.005187 0.299015 -0.009669 -182.021222 159.874170 185.171619 0.000000 0.000003 -0.000000 0.000000 0.000002 0.000001 -0.000000 0.000002 0.000000 0.000000 0.000002 0.000000 0.000924 0.155148 0.009274 11.368963 -0.012867 8.028744 0.019937 0.078966 0.057518 14.786899 8.750447 29.176898 0.177024 -0.020466 -0.095062 -12.288160 10.554085 -62.842385 -56.204940 3.102212 -66.240643 -0.000001 0.000001 0.000001 0.021770 -0.038291 0.012954 -0.000001 0.000001 0.000001 0.000001 -0.000005 -0.000001 -0.000000 -0.000001 0.000003 0.000000 0.000005 -0.000001 -0.009090 -0.002348 -0.024223 0.000001 -0.000003 -0.000001 -0.000001 0.000003 -0.000000 0.000001 0.000001 0.000001 0.032823 -0.025104 0.012281 -0.000002 0.000003 0.000005 -0.000006 0.000003 -0.000005 -0.000003 0.000000 0.000001 -0.000002 0.000002 0.000006 0.039230 -0.011402 0.008390 -0.000001 0.000001 0.000006 0.000000 0.000001 0.000001 0.000004 0.000004 -0.000000 0.000003 0.000000 0.000002 0.043417 0.002450 0.002889 -0.000002 0.000005 -0.000002 -0.000005 -0.000004 0.000003 0.000004 -0.000003 0.000001 -0.000003 0.000000 -0.000001 -0.016662 0.078957 0.057696 19.062957 11.591793 -50.303216 -0.176972 -0.020537 -0.095144 -100.391445 -43.655041 45.000852 -32.168460 -14.775395 107.171399 -0.000001 0.000001 0.000002 -0.021773 -0.038278 0.012988 -0.000002 -0.000003 -0.000002 0.000002 0.000001 -0.000001 0.000000 0.000001 -0.000002 -0.000003 0.000002 -0.000003 0.009114 -0.002381 -0.024211 0.000002 -0.000000 -0.000003 -0.000001 -0.000000 0.000000 -0.000002 -0.000002 0.000001 -0.032828 -0.025095 0.012286 -0.000001 -0.000001 0.000001 -0.000002 0.000001 -0.000003 0.000000 0.000003 0.000002 -0.000003 0.000003 -0.000003 -0.039192 -0.011488 0.008390 -0.000002 0.000003 -0.000004 -0.000000 0.000003 -0.000002 0.000002 0.000001 0.000000 0.000003 -0.000002 0.000004 -0.043421 0.002443 0.002844 -0.000001 0.000001 0.000000 -0.000003 0.000007 0.000003 -0.000002 -0.000000 -0.000000 0.000001 0.000004 -0.000000 0.000000 0.000000 -0.000000 -0.998955 0.041039 -1.662498 5.688071 0.105415 1.341520 24.019118 -0.821503 8.320154 -0.000002 0.000001 -0.000001 -0.000001 -0.000000 0.000000 0.000000 -0.000001 -0.000002 -0.038000 -0.085200 0.016200 -0.000001 -0.000003 -0.000001 0.000000 0.000000 0.000000 -0.976452 0.040619 -0.428333 13.934678 -0.210774 -2.215278 18.971062 -0.285662 2.883933 -0.000003 -0.000001 -0.000001 -0.000001 0.000000 0.000000 0.000002 0.000000 0.000000 0.038000 -0.085200 0.016200 0.000001 0.000005 -0.000001 
-0.004916 0.299363 -0.009387 -180.718486 162.096618 184.640080 -0.000000 0.000001 -0.000000 -0.000000 -0.000002 0.000001 -0.000000 0.000002 0.000000 0.000000 0.000001 0.000000 0.000924 0.155148 0.009274 8.596155 -0.009965 7.353815 0.019937 0.078966 0.057518 11.406056 8.466880 29.993997 0.177024 -0.020465 -0.095062 -18.515664 10.837628 -61.945636 -52.924899 18.927168 -84.204929 -0.000003 -0.000001 -0.000000 0.021770 -0.038291 0.012954 0.000000 0.000005 0.000001 -0.000004 -0.000001 0.000005 -0.000002 0.000003 0.000007 -0.000000 0.000003 -0.000002 -0.009090 -0.002348 -0.024224 0.000003 -0.000002 0.000001 -0.000003 0.000003 0.000003 -0.000000 0.000004 -0.000002 0.032823 -0.025104 0.012281 0.000001 0.000004 0.000005 -0.000002 -0.000002 -0.000005 -0.000003 0.000002 0.000004 0.000000 -0.000001 -0.000001 0.039230 -0.011402 0.008390 -0.000000 0.000003 0.000004 -0.000002 0.000002 -0.000004 -0.000001 0.000000 0.000001 0.000000 0.000002 0.000004 0.043417 0.002450 0.002889 -0.000000 0.000007 -0.000000 0.000001 -0.000003 -0.000000 -0.000002 -0.000005 0.000004 0.000003 -0.000002 -0.000001 -0.016662 0.078957 0.057696 18.020319 11.319187 -48.826936 -0.176972 -0.020537 -0.095144 -93.624012 -41.770268 49.545827 -30.783963 -16.045824 112.822144 0.000004 0.000001 -0.000000 -0.021773 -0.038278 0.012988 -0.000000 0.000000 -0.000003 -0.000000 0.000001 -0.000001 -0.000000 -0.000004 -0.000001 0.000002 -0.000000 -0.000003 0.009114 -0.002381 -0.024212 -0.000000 -0.000002 -0.000003 -0.000001 0.000000 -0.000001 -0.000001 -0.000001 -0.000003 -0.032828 -0.025095 0.012286 0.000001 0.000002 -0.000008 -0.000000 0.000005 -0.000003 0.000002 0.000000 -0.000000 0.000003 0.000001 -0.000006 -0.039192 -0.011488 0.008390 -0.000001 0.000003 0.000003 0.000001 0.000003 -0.000007 0.000001 -0.000000 0.000003 -0.000003 0.000000 -0.000003 -0.043421 0.002443 0.002844 0.000000 0.000003 -0.000005 -0.000001 0.000006 0.000002 -0.000004 0.000000 0.000000 -0.000001 -0.000001 -0.000008 -0.000000 0.000000 -0.000000 -0.986457 0.056792 -1.892389 7.959782 0.150871 1.830013 23.374166 -0.779740 7.894514 -0.000003 0.000001 0.000000 -0.000001 0.000000 -0.000001 -0.000003 -0.000001 -0.000000 -0.038000 -0.085200 0.016200 0.000000 -0.000000 0.000002 -0.000000 0.000000 -0.000000 -0.963823 0.056277 -0.658216 13.919372 -0.256259 -2.803027 18.962878 -0.300107 3.029870 0.000003 0.000001 -0.000000 0.000002 0.000001 -0.000000 0.000010 0.000001 0.000000 0.038000 -0.085200 0.016200 0.000001 -0.000001 -0.000001 
